<svg width="100" height="100" viewBox="0 0 100 100" fill="none" xmlns="http://www.w3.org/2000/svg">
<path d="M59.4 22.1C61.2778 22.1 62.8 20.5778 62.8 18.7C62.8 16.8222 61.2778 15.3 59.4 15.3C57.5222 15.3 56 16.8222 56 18.7C56 20.5778 57.5222 22.1 59.4 22.1Z" fill="white"/>
<path d="M69.7 22.1C71.5777 22.1 73.1 20.5778 73.1 18.7C73.1 16.8222 71.5777 15.3 69.7 15.3C67.8222 15.3 66.3 16.8222 66.3 18.7C66.3 20.5778 67.8222 22.1 69.7 22.1Z" fill="white"/>
<path d="M80.6 22.1C82.4778 22.1 84 20.5778 84 18.7C84 16.8222 82.4778 15.3 80.6 15.3C78.7222 15.3 77.2 16.8222 77.2 18.7C77.2 20.5778 78.7222 22.1 80.6 22.1Z" fill="white"/>
<path d="M49.4 73.8H15.2C10.7 73.8 6.90001 69.4 6.90001 64.1V30.3H91.9V52.3C94.2 54.6 96 57.3 97.3 60.4V22.4C97.3 14.1 91.2 7.3 83.7 7.3H15.2C7.70001 7.3 1.60001 14.1 1.60001 22.4V64C1.60001 72.3 7.70001 79.1 15.2 79.1H50.9C50.2 77.4 49.7 75.6 49.4 73.8ZM6.90001 22.4C6.90001 17 10.6 12.7 15.2 12.7H83.7C88.2 12.7 92 17.1 92 22.4V24.9H7.00001V22.4H6.90001Z" fill="white"/>
<path d="M97.4 88.2L90.4 81.2C92.6 78 93.9 74.2 93.9 70.1C93.9 59.3 85.1 50.5 74.3 50.5C74.1 50.5 61.6 50.5 61.6 50.5L59.2 45.2C58.8 44.4 58 43.9 57.2 43.9C56.3 43.9 55.5 44.4 55.2 45.2L48.8 59.1L41.8 39.6C41.5 38.8 40.7 38.2 39.8 38.1C38.9 38 38.1 38.5 37.7 39.3L32 50.3H23.6C22.4 50.3 21.4 51.3 21.4 52.5C21.4 53.7 22.4 54.7 23.6 54.7H33.4C34.2 54.7 35 54.2 35.4 53.5L39.3 45.8L46.4 65.6C46.7 66.5 47.5 67 48.4 67.1H48.5C49.4 67.1 50.2 66.6 50.5 65.8L57.1 51.3L58.1 53.5C58.5 54.3 59.3 54.8 60.1 54.8H61.7C57.4 58.4 54.6 63.8 54.6 69.9C54.6 80.7 63.4 89.5 74.2 89.5C78.9 89.5 83.1 87.9 86.5 85.1L93.3 91.9C93.8 92.4 94.6 92.7 95.3 92.7C96 92.7 96.7 92.4 97.3 91.9C98.5 91.1 98.5 89.3 97.4 88.2ZM74.3 84.2C66.6 84.2 60.3 77.9 60.3 70.2C60.3 62.5 66.6 56.2 74.3 56.2C82 56.2 88.3 62.5 88.3 70.2C88.3 77.9 82 84.2 74.3 84.2Z" fill="white"/>
</svg>
