<svg width="100" height="100" viewBox="0 0 100 100" fill="none" xmlns="http://www.w3.org/2000/svg">
<path d="M27.1 93.287C28.182 94.392 29.633 95 31.188 95C32.696 95 34.116 94.422 35.188 93.373L42.59 86.128C43.678 85.063 44.287 83.633 44.303 82.103C44.312 81.26 44.125 80.45 43.791 79.705L43.946 79.59C45.363 78.541 47.042 77.986 48.801 77.986H60.202C63.132 77.986 65.992 76.976 68.254 75.142L74.595 70.01C74.846 69.841 75.086 69.648 75.315 69.427L75.331 69.414C75.34 69.407 75.346 69.398 75.354 69.391C75.396 69.35 75.44 69.317 75.481 69.274L84.439 59.726C85.114 59.002 85.485 58.059 85.485 57.068C85.485 56.011 85.044 54.982 84.261 54.233C81.51 51.657 77.166 51.795 74.579 54.545L70.322 59.088L66.626 61.32C65.72 60.425 64.476 59.869 63.105 59.869L53.326 59.872L51.356 58.483C50.042 57.55 48.494 57.057 46.881 57.057H40.131C38.123 57.057 36.22 57.819 34.77 59.203L29.09 64.635C28.316 64.255 27.46 64.048 26.568 64.048C25.061 64.048 23.64 64.626 22.568 65.675L15.166 72.92C14.078 73.985 13.469 75.415 13.453 76.945C13.436 78.476 14.014 79.918 15.079 81.007L27.1 93.287ZM36.842 61.371C37.73 60.523 38.898 60.057 40.131 60.057H46.881C47.854 60.057 48.827 60.367 49.623 60.932L51.985 62.599C51.989 62.602 51.994 62.604 51.998 62.607C52.049 62.642 52.105 62.67 52.161 62.699C52.194 62.716 52.225 62.738 52.259 62.752C52.298 62.769 52.34 62.778 52.38 62.791C52.434 62.809 52.486 62.83 52.541 62.841C52.568 62.847 52.597 62.847 52.625 62.851C52.695 62.862 52.765 62.872 52.836 62.872C52.841 62.872 52.845 62.873 52.85 62.873L63.104 62.87C64.215 62.87 65.12 63.774 65.12 64.886C65.12 65.998 64.216 66.9 63.104 66.9H51.328C50.499 66.9 49.828 67.571 49.828 68.4C49.828 69.229 50.499 69.9 51.328 69.9H63.105C65.871 69.9 68.121 67.65 68.121 64.884C68.121 64.573 68.084 64.272 68.029 63.977L72.051 61.549C72.163 61.481 72.259 61.398 72.346 61.308C72.353 61.301 72.363 61.298 72.37 61.291L76.766 56.6C78.221 55.054 80.662 54.975 82.198 56.413C82.383 56.59 82.485 56.823 82.485 57.07C82.485 57.305 82.404 57.51 82.248 57.678L73.363 67.149L72.654 67.723C72.626 67.746 72.597 67.766 72.571 67.79L66.366 72.811C64.636 74.213 62.447 74.986 60.202 74.986H48.8C46.393 74.986 44.097 75.744 42.155 77.182L41.97 77.32L31.427 66.549L36.842 61.371ZM17.265 75.063L24.667 67.818C25.175 67.321 25.85 67.047 26.568 67.047C27.309 67.047 27.999 67.336 28.512 67.859L40.533 80.139C41.037 80.655 41.311 81.34 41.304 82.07C41.297 82.8 41.008 83.479 40.492 83.984L33.09 91.229C32.058 92.239 30.256 92.219 29.246 91.187L17.223 78.907C16.719 78.391 16.445 77.706 16.452 76.976C16.459 76.246 16.749 75.567 17.265 75.063Z" fill="white"/>
<path d="M37.211 84.988C38.5569 84.988 39.648 83.8969 39.648 82.551C39.648 81.2051 38.5569 80.114 37.211 80.114C35.8651 80.114 34.774 81.2051 34.774 82.551C34.774 83.8969 35.8651 84.988 37.211 84.988Z" fill="white"/>
<path d="M53.027 42.418C53.615 42.835 53.952 43.456 53.952 44.143C53.953 45.171 54.428 46.127 55.2 46.76V49.719C55.2 52.426 57.037 54.706 59.529 55.393C59.766 55.984 60.389 56.41 61.128 56.41C61.867 56.41 62.49 55.985 62.727 55.393C65.218 54.706 67.056 52.426 67.056 49.719V46.758C67.826 46.125 68.3 45.17 68.301 44.141C68.301 43.465 68.607 42.849 69.122 42.494C72.915 39.864 75.179 35.545 75.179 30.939C75.179 23.191 68.873 16.887 61.123 16.887C60.596 16.887 60.061 16.916 59.53 16.975C52.957 17.706 47.745 23.02 47.137 29.61C46.671 34.7 48.873 39.488 53.027 42.418ZM61.166 52.61H61.092C59.498 52.61 58.201 51.313 58.201 49.719V47.338H64.057V49.719C64.057 51.313 62.76 52.61 61.166 52.61ZM50.126 29.886C50.604 24.707 54.699 20.532 59.861 19.958C60.281 19.912 60.706 19.888 61.124 19.888C67.221 19.888 72.18 24.846 72.18 30.94C72.18 34.562 70.398 37.96 67.416 40.027C66.092 40.942 65.302 42.479 65.302 44.139C65.302 44.221 65.268 44.282 65.231 44.338H62.129V33.794L63.16 34.7C63.344 34.861 63.578 34.949 63.82 34.949C63.851 34.949 63.882 34.948 63.913 34.945C64.187 34.919 64.439 34.782 64.608 34.565L66.454 32.2C66.794 31.764 66.717 31.136 66.281 30.797C65.846 30.457 65.218 30.535 64.878 30.97L63.684 32.499L61.789 30.833C61.754 30.802 61.71 30.791 61.672 30.766C61.627 30.736 61.588 30.699 61.539 30.678C61.519 30.669 61.499 30.663 61.478 30.655C61.425 30.635 61.371 30.63 61.316 30.619C61.264 30.609 61.214 30.593 61.161 30.591C61.149 30.591 61.14 30.584 61.128 30.584C61.117 30.584 61.107 30.59 61.096 30.591C61.042 30.593 60.991 30.609 60.938 30.62C60.884 30.63 60.831 30.636 60.779 30.655C60.758 30.663 60.738 30.668 60.718 30.677C60.669 30.699 60.629 30.736 60.584 30.766C60.546 30.791 60.503 30.802 60.468 30.832L58.573 32.498L57.379 30.969C57.04 30.533 56.411 30.455 55.976 30.796C55.54 31.135 55.463 31.764 55.803 32.199L57.649 34.564C57.818 34.781 58.069 34.918 58.344 34.944C58.375 34.947 58.406 34.948 58.437 34.948C58.679 34.948 58.914 34.86 59.097 34.699L60.128 33.793V44.338H57.024C56.986 44.279 56.951 44.213 56.951 44.121C56.951 42.494 56.132 40.941 54.757 39.967C51.49 37.663 49.758 33.893 50.126 29.886Z" fill="white"/>
<path d="M37.21 31.918H42.148C42.977 31.918 43.648 31.247 43.648 30.418C43.648 29.589 42.977 28.918 42.148 28.918H37.21C36.381 28.918 35.71 29.589 35.71 30.418C35.71 31.247 36.382 31.918 37.21 31.918Z" fill="white"/>
<path d="M85.047 28.918H80.11C79.281 28.918 78.61 29.589 78.61 30.418C78.61 31.247 79.281 31.918 80.11 31.918H85.048C85.877 31.918 86.548 31.247 86.548 30.418C86.548 29.589 85.876 28.918 85.047 28.918Z" fill="white"/>
<path d="M46.647 42.779L43.156 46.27C42.57 46.855 42.57 47.806 43.156 48.391C43.449 48.684 43.833 48.83 44.217 48.83C44.601 48.83 44.985 48.684 45.278 48.391L48.769 44.9C49.355 44.315 49.355 43.364 48.769 42.779C48.182 42.193 47.233 42.193 46.647 42.779Z" fill="white"/>
<path d="M74.55 18.497C74.934 18.497 75.318 18.351 75.611 18.058L79.102 14.567C79.688 13.982 79.688 13.031 79.102 12.446C78.516 11.86 77.567 11.86 76.981 12.446L73.49 15.937C72.904 16.522 72.904 17.473 73.49 18.058C73.783 18.35 74.167 18.497 74.55 18.497Z" fill="white"/>
<path d="M61.129 12.938C61.958 12.938 62.629 12.267 62.629 11.438V6.5C62.629 5.671 61.958 5 61.129 5C60.3 5 59.629 5.671 59.629 6.5V11.438C59.629 12.266 60.3 12.938 61.129 12.938Z" fill="white"/>
<path d="M73.49 42.779C72.904 43.364 72.904 44.315 73.49 44.9L76.981 48.391C77.274 48.684 77.658 48.83 78.042 48.83C78.426 48.83 78.81 48.684 79.103 48.391C79.689 47.806 79.689 46.855 79.103 46.27L75.612 42.779C75.025 42.193 74.076 42.193 73.49 42.779Z" fill="white"/>
<path d="M46.647 18.057C46.94 18.35 47.324 18.496 47.708 18.496C48.092 18.496 48.476 18.35 48.769 18.057C49.355 17.472 49.355 16.521 48.769 15.936L45.278 12.445C44.692 11.859 43.743 11.859 43.157 12.445C42.571 13.03 42.571 13.981 43.157 14.566L46.647 18.057Z" fill="white"/>
</svg>
