<svg width="100" height="100" viewBox="0 0 100 100" fill="none" xmlns="http://www.w3.org/2000/svg">
<path d="M87.5 64.0625H12.5V23.4375C12.5014 22.1947 12.9957 21.0033 13.8745 20.1245C14.7533 19.2457 15.9447 18.7514 17.1875 18.75H51.5625V15.625H17.1875C15.1162 15.6273 13.1304 16.4512 11.6658 17.9158C10.2012 19.3804 9.37733 21.3662 9.375 23.4375V71.875C9.37733 73.9463 10.2012 75.9321 11.6658 77.3967C13.1304 78.8613 15.1162 79.6852 17.1875 79.6875H36.693L33.3447 87.5H26.5625C25.3193 87.5 24.127 87.9939 23.2479 88.8729C22.3689 89.752 21.875 90.9443 21.875 92.1875C21.875 93.4307 22.3689 94.623 23.2479 95.5021C24.127 96.3811 25.3193 96.875 26.5625 96.875H73.4375C74.6807 96.875 75.873 96.3811 76.7521 95.5021C77.6311 94.623 78.125 93.4307 78.125 92.1875C78.125 90.9443 77.6311 89.752 76.7521 88.8729C75.873 87.9939 74.6807 87.5 73.4375 87.5H66.6553L63.307 79.6875H82.8125C84.8838 79.6852 86.8696 78.8613 88.3342 77.3967C89.7988 75.9321 90.6227 73.9463 90.625 71.875V45.3125H87.5V64.0625ZM75 92.1875C74.9995 92.6018 74.8348 92.9989 74.5418 93.2918C74.2489 93.5848 73.8518 93.7495 73.4375 93.75H26.5625C26.1481 93.75 25.7507 93.5854 25.4576 93.2924C25.1646 92.9993 25 92.6019 25 92.1875C25 91.7731 25.1646 91.3757 25.4576 91.0826C25.7507 90.7896 26.1481 90.625 26.5625 90.625H73.4375C73.8518 90.6255 74.2489 90.7902 74.5418 91.0832C74.8348 91.3761 74.9995 91.7732 75 92.1875ZM63.2555 87.5H36.7445L40.0928 79.6875H59.9072L63.2555 87.5ZM82.8125 76.5625H17.1875C15.9447 76.5611 14.7533 76.0668 13.8745 75.188C12.9957 74.3092 12.5014 73.1178 12.5 71.875V67.1875H87.5V71.875C87.4986 73.1178 87.0043 74.3092 86.1255 75.188C85.2467 76.0668 84.0553 76.5611 82.8125 76.5625Z" fill="white"/>
<path d="M51.5625 70.3125H48.4375V73.4375H51.5625V70.3125Z" fill="white"/>
<path d="M95.9104 21.3246C96.1553 21.1145 96.3292 20.8338 96.4082 20.521C96.4872 20.2081 96.4674 19.8785 96.3516 19.5773L94.4822 14.7172C94.3664 14.416 94.1602 14.1582 93.8919 13.979C93.6237 13.7997 93.3065 13.7079 92.984 13.7162L88.7305 13.8246L86.8615 11.8576L87.1875 7.61521C87.2122 7.29349 87.1367 6.97202 86.9713 6.69494C86.806 6.41786 86.5589 6.19877 86.2641 6.06775L81.5051 3.9529C81.2102 3.82185 80.8821 3.78529 80.5656 3.84823C80.2492 3.91118 79.9599 4.07055 79.7377 4.30446L76.8068 7.38884L74.0941 7.3197L71.3244 4.08943C71.1144 3.84458 70.8337 3.67075 70.5209 3.59178C70.2082 3.51282 69.8786 3.5326 69.5775 3.64841L64.7172 5.51775C64.4161 5.63358 64.1582 5.83979 63.979 6.10805C63.7998 6.37631 63.708 6.69347 63.7162 7.01599L63.8246 11.2693L61.8576 13.1386L57.6152 12.8125C57.2935 12.7878 56.9721 12.8632 56.695 13.0286C56.4179 13.1939 56.1988 13.4409 56.0678 13.7357L53.9529 18.4949C53.8219 18.7897 53.7854 19.1179 53.8483 19.4343C53.9113 19.7507 54.0706 20.0399 54.3045 20.2621L57.3889 23.1931L57.3195 25.9058L54.0897 28.6754C53.8447 28.8854 53.6708 29.1661 53.5918 29.479C53.5128 29.7918 53.5326 30.1215 53.6484 30.4226L55.5178 35.2828C55.6346 35.5833 55.841 35.8405 56.109 36.0196C56.3771 36.1987 56.6937 36.2909 57.016 36.2838L61.2695 36.1754L63.1385 38.1424L62.8125 42.3847C62.7878 42.7065 62.8633 43.0279 63.0287 43.305C63.194 43.5821 63.4411 43.8012 63.7359 43.9322L68.4943 46.047C68.7892 46.1781 69.1174 46.2147 69.4338 46.1517C69.7503 46.0888 70.0395 45.9294 70.2617 45.6955L73.1926 42.6111L75.9053 42.6802L78.675 45.9105C78.885 46.1554 79.1657 46.3292 79.4785 46.4082C79.7913 46.4871 80.1208 46.4673 80.4219 46.3515L85.2822 44.4822C85.5833 44.3664 85.8412 44.1602 86.0204 43.8919C86.1997 43.6236 86.2915 43.3065 86.2832 42.984L86.1748 38.7306L88.1418 36.8613L92.3848 37.1875C92.7065 37.2122 93.0279 37.1367 93.305 36.9714C93.5821 36.8061 93.8012 36.5591 93.9322 36.2642L96.0471 31.5058C96.1781 31.211 96.2146 30.8829 96.1517 30.5665C96.0887 30.25 95.9294 29.9609 95.6955 29.7386L92.6111 26.8076L92.6805 24.0949L95.9104 21.3246ZM89.9551 28.5937L92.7436 31.2437L91.5234 33.9867L87.6883 33.6926C87.4703 33.6756 87.2511 33.7047 87.0451 33.778C86.8391 33.8513 86.6507 33.9671 86.4924 34.1179L83.5186 36.9435C83.3602 37.0941 83.2352 37.2761 83.1515 37.478C83.0678 37.6798 83.0274 37.897 83.0328 38.1154L83.1305 41.9607L80.3285 43.0384L77.8246 40.1183C77.6823 39.9524 77.5067 39.8182 77.3093 39.7243C77.1118 39.6305 76.8969 39.5792 76.6783 39.5736L72.5768 39.4689C72.5635 39.4689 72.5502 39.4689 72.5377 39.4689C72.3258 39.4689 72.1161 39.512 71.9213 39.5956C71.7266 39.6791 71.5509 39.8014 71.4049 39.9551L68.7551 42.7435L66.0133 41.5234L66.3074 37.6884C66.3242 37.4705 66.295 37.2514 66.2217 37.0454C66.1485 36.8394 66.0328 36.651 65.8822 36.4925L63.0564 33.5185C62.9063 33.3596 62.7243 33.2342 62.5224 33.1505C62.3204 33.0669 62.1031 33.0268 61.8846 33.033L58.0393 33.1306L56.9615 30.3287L59.8814 27.825C60.0474 27.6827 60.1817 27.5071 60.2755 27.3096C60.3694 27.1122 60.4208 26.8972 60.4264 26.6787L60.5313 22.5771C60.5367 22.3587 60.4963 22.1415 60.4127 21.9397C60.329 21.7378 60.2039 21.5558 60.0455 21.4052L57.2565 18.7564L58.4766 16.0133L62.3117 16.3074C62.5297 16.3239 62.7487 16.2945 62.9547 16.2213C63.1607 16.148 63.349 16.0324 63.5076 15.882L66.4815 13.0564C66.6398 12.9059 66.7648 12.7238 66.8485 12.522C66.9322 12.3201 66.9726 12.103 66.9672 11.8845L66.8695 8.03923L69.6715 6.9615L72.1754 9.88161C72.3176 10.0473 72.493 10.1813 72.6902 10.275C72.8874 10.3687 73.1021 10.4201 73.3203 10.4258L77.4219 10.5304C77.6405 10.5373 77.858 10.4976 78.0601 10.4139C78.2622 10.3301 78.4441 10.2044 78.5938 10.0449L81.2436 7.25642L83.9867 8.47654L83.6926 12.3115C83.6758 12.5295 83.705 12.7486 83.7783 12.9546C83.8515 13.1606 83.9672 13.3489 84.1178 13.5074L86.9436 16.4814C87.0938 16.6402 87.2758 16.7655 87.4777 16.8492C87.6796 16.9329 87.8969 16.973 88.1154 16.967L91.9607 16.8693L93.0385 19.6713L90.1191 22.1738C89.9532 22.3161 89.8189 22.4917 89.7251 22.6891C89.6312 22.8866 89.5798 23.1015 89.5742 23.3201L89.4693 27.4217C89.4638 27.6401 89.5042 27.8573 89.5879 28.0592C89.6716 28.2611 89.7967 28.4432 89.9551 28.5937Z" fill="white"/>
<path d="M71.0076 14.6199C68.9546 15.4095 67.182 16.7902 65.9137 18.5873C64.6454 20.3844 63.9385 22.5172 63.8824 24.7161C63.8263 26.915 64.4234 29.0811 65.5984 30.9405C66.7733 32.8 68.4733 34.2693 70.4833 35.1626C72.4933 36.056 74.7231 36.3332 76.8906 35.9593C79.0582 35.5854 81.0662 34.5771 82.6607 33.0619C84.2552 31.5468 85.3647 29.5929 85.8487 27.4472C86.3327 25.3016 86.1697 23.0606 85.3801 21.0076C84.3184 18.2568 82.209 16.0394 79.5146 14.8419C76.8202 13.6444 73.7608 13.5646 71.0076 14.6199ZM77.8711 32.4633C76.395 33.0311 74.7837 33.1485 73.2408 32.8006C71.698 32.4526 70.293 31.655 69.2035 30.5086C68.114 29.3622 67.389 27.9184 67.12 26.3599C66.851 24.8014 67.0502 23.1981 67.6925 21.7528C68.3347 20.3075 69.3911 19.0851 70.728 18.2402C72.065 17.3953 73.6225 16.9658 75.2035 17.0061C76.7846 17.0463 78.3182 17.5545 79.6104 18.4664C80.9026 19.3782 81.8954 20.6528 82.4633 22.1289C83.2223 24.1084 83.165 26.3082 82.3041 28.2456C81.4432 30.183 79.8489 31.6998 77.8711 32.4633Z" fill="white"/>
<path d="M24.5424 33.2701L20.9596 29.6875L24.5424 26.1048L22.3326 23.8951L17.6451 28.5826C17.5 28.7277 17.3849 28.8999 17.3064 29.0895C17.2279 29.2791 17.1874 29.4823 17.1874 29.6875C17.1874 29.8927 17.2279 30.0958 17.3064 30.2854C17.3849 30.475 17.5 30.6473 17.6451 30.7923L22.3326 35.4798L24.5424 33.2701Z" fill="white"/>
<path d="M37.0424 35.4798L41.7299 30.7923C41.875 30.6473 41.9901 30.475 42.0686 30.2854C42.1471 30.0958 42.1876 29.8927 42.1876 29.6875C42.1876 29.4823 42.1471 29.2791 42.0686 29.0895C41.9901 28.8999 41.875 28.7277 41.7299 28.5826L37.0424 23.8951L34.8326 26.1048L38.4154 29.6875L34.8326 33.2701L37.0424 35.4798Z" fill="white"/>
<path d="M29.7341 23.0583L26.6091 35.5583L29.6408 36.3163L32.7658 23.8162L29.7341 23.0583Z" fill="white"/>
<path d="M20.3125 39.0625H17.1875V42.1875H20.3125V39.0625Z" fill="white"/>
<path d="M53.125 39.0625H23.4375V42.1875H53.125V39.0625Z" fill="white"/>
<path d="M20.3125 45.3125H17.1875V48.4375H20.3125V45.3125Z" fill="white"/>
<path d="M57.8125 45.3125H23.4375V48.4375H57.8125V45.3125Z" fill="white"/>
<path d="M20.3125 51.5625H17.1875V54.6875H20.3125V51.5625Z" fill="white"/>
<path d="M62.5 51.5625H23.4375V54.6875H62.5V51.5625Z" fill="white"/>
<path d="M20.3125 57.8125H17.1875V60.9375H20.3125V57.8125Z" fill="white"/>
<path d="M70.3125 57.8125H23.4375V60.9375H70.3125V57.8125Z" fill="white"/>
<path d="M76.5625 57.8125H73.4375V60.9375H76.5625V57.8125Z" fill="white"/>
<path d="M75 51.5625H71.875V54.6875H75V51.5625Z" fill="white"/>
<path d="M68.75 51.5625H65.625V54.6875H68.75V51.5625Z" fill="white"/>
<path d="M82.8125 57.8125H79.6875V60.9375H82.8125V57.8125Z" fill="white"/>
</svg>
