<svg height='100px' width='100px'  fill="#FFFFFF" xmlns="http://www.w3.org/2000/svg" xmlns:xlink="http://www.w3.org/1999/xlink" version="1.1" x="0px" y="0px" viewBox="0 0 64 64" style="enable-background:new 0 0 64 64;" xml:space="preserve"><g><text transform="matrix(1 0 0 1 -170.7197 -405)"><tspan x="0" y="0" style="" font-family="&apos;Montserrat-Regular&apos;" font-size="10px">c</tspan><tspan x="6.95" y="0" style="" font-family="&apos;Montserrat-Regular&apos;" font-size="10px">ar</tspan><tspan x="-3.475" y="12" style="" font-family="&apos;Montserrat-Regular&apos;" font-size="10px">l</tspan><tspan x="1.765" y="12" style="" font-family="&apos;Montserrat-Regular&apos;" font-size="10px">o</tspan><tspan x="9.715" y="12" style="" font-family="&apos;Montserrat-Regular&apos;" font-size="10px">an</tspan></text><text transform="matrix(1 0 0 1 -96.6499 -405)"><tspan x="0" y="0" style="" font-family="&apos;Montserrat-Regular&apos;" font-size="10px">a</tspan><tspan x="7.09" y="0" style="" font-family="&apos;Montserrat-Regular&apos;" font-size="10px">c</tspan><tspan x="13.92" y="0" style="" font-family="&apos;Montserrat-Regular&apos;" font-size="10px">cep</tspan><tspan x="34.15" y="0" style="" font-family="&apos;Montserrat-Regular&apos;" font-size="10px">t</tspan><tspan x="39.15" y="0" style="" font-family="&apos;Montserrat-Regular&apos;" font-size="10px">able</tspan></text><text transform="matrix(1 0 0 1 -95.7998 -309)"><tspan x="0" y="0" style="" font-family="&apos;Montserrat-Regular&apos;" font-size="10px">m</tspan><tspan x="9.39" y="0" style="" font-family="&apos;Montserrat-Regular&apos;" font-size="10px">o</tspan><tspan x="17.4" y="0" style="" font-family="&apos;Montserrat-Regular&apos;" font-size="10px">ti</tspan><tspan x="26.03" y="0" style="" font-family="&apos;Montserrat-Regular&apos;" font-size="10px">v</tspan><tspan x="32.32" y="0" style="" font-family="&apos;Montserrat-Regular&apos;" font-size="10px">a</tspan><tspan x="38.91" y="0" style="" font-family="&apos;Montserrat-Regular&apos;" font-size="10px">tion</tspan></text><text transform="matrix(1 0 0 1 2.895 -405)"><tspan x="0" y="0" style="" font-family="&apos;Montserrat-Regular&apos;" font-size="10px">sign</tspan><tspan x="24.57" y="0" style="" font-family="&apos;Montserrat-Regular&apos;" font-size="10px">a</tspan><tspan x="31.16" y="0" style="" font-family="&apos;Montserrat-Regular&apos;" font-size="10px">ture</tspan></text><text transform="matrix(1 0 0 1 110.2451 -405)" style="" font-family="&apos;Montserrat-Regular&apos;" font-size="10px">check</text><text transform="matrix(1 0 0 1 195.4702 -405)"><tspan x="0" y="0" style="" font-family="&apos;Montserrat-Regular&apos;" font-size="10px">appr</tspan><tspan x="27.91" y="0" style="" font-family="&apos;Montserrat-Regular&apos;" font-size="10px">o</tspan><tspan x="35.94" y="0" style="" font-family="&apos;Montserrat-Regular&apos;" font-size="10px">ved</tspan></text><text transform="matrix(1 0 0 1 290.9204 -405)"><tspan x="0" y="0" style="" font-family="&apos;Montserrat-Regular&apos;" font-size="10px">c</tspan><tspan x="6.95" y="0" style="" font-family="&apos;Montserrat-Regular&apos;" font-size="10px">alcu</tspan><tspan x="34.06" y="0" style="" font-family="&apos;Montserrat-Regular&apos;" font-size="10px">l</tspan><tspan x="39.369" y="0" style="" font-family="&apos;Montserrat-Regular&apos;" font-size="10px">a</tspan><tspan x="45.959" y="0" style="" font-family="&apos;Montserrat-Regular&apos;" font-size="10px">te</tspan></text><text transform="matrix(1 0 0 1 -188.1699 -309)"><tspan x="0" y="0" style="" font-family="&apos;Montserrat-Regular&apos;" font-size="10px">s</tspan><tspan x="6.16" y="0" style="" font-family="&apos;Montserrat-Regular&apos;" font-size="10px">t</tspan><tspan x="11.16" y="0" style="" font-family="&apos;Montserrat-Regular&apos;" font-size="10px">an</tspan><tspan x="26.36" y="0" style="" font-family="&apos;Montserrat-Regular&apos;" font-size="10px">d</tspan><tspan x="34.02" y="0" style="" font-family="&apos;Montserrat-Regular&apos;" font-size="10px">ard</tspan></text><text transform="matrix(1 0 0 1 9.585 -309)"><tspan x="0" y="0" style="" font-family="&apos;Montserrat-Regular&apos;" font-size="10px">p</tspan><tspan x="6.3" y="0" style="" font-family="&apos;Montserrat-Regular&apos;" font-size="10px">a</tspan><tspan x="13.49" y="0" style="" font-family="&apos;Montserrat-Regular&apos;" font-size="10px">ssion</tspan></text><text transform="matrix(1 0 0 1 100.2305 -309)"><tspan x="0" y="0" style="" font-family="&apos;Montserrat-Regular&apos;" font-size="10px">c</tspan><tspan x="6.83" y="0" style="" font-family="&apos;Montserrat-Regular&apos;" font-size="10px">ontr</tspan><tspan x="35.79" y="0" style="" font-family="&apos;Montserrat-Regular&apos;" font-size="10px">a</tspan><tspan x="42.88" y="0" style="" font-family="&apos;Montserrat-Regular&apos;" font-size="10px">ct</tspan></text><text transform="matrix(1 0 0 1 198.4253 -309)"><tspan x="0" y="0" style="" font-family="&apos;Montserrat-Regular&apos;" font-size="10px">w</tspan><tspan x="10.32" y="0" style="" font-family="&apos;Montserrat-Regular&apos;" font-size="10px">orking</tspan><tspan x="9.255" y="12" style="" font-family="&apos;Montserrat-Regular&apos;" font-size="10px">r</tspan><tspan x="16.485" y="12" style="" font-family="&apos;Montserrat-Regular&apos;" font-size="10px">o</tspan><tspan x="24.385" y="12" style="" font-family="&apos;Montserrat-Regular&apos;" font-size="10px">om</tspan></text><text transform="matrix(1 0 0 1 296.9653 -309)"><tspan x="0" y="0" style="" font-family="&apos;Montserrat-Regular&apos;" font-size="10px">re</tspan><tspan x="13.76" y="0" style="" font-family="&apos;Montserrat-Regular&apos;" font-size="10px">w</tspan><tspan x="23.75" y="0" style="" font-family="&apos;Montserrat-Regular&apos;" font-size="10px">ard</tspan></text><text transform="matrix(1 0 0 1 -197.4497 -213)" style="" font-family="&apos;Montserrat-Regular&apos;" font-size="10px">appointment</text><text transform="matrix(1 0 0 1 -71.4951 -213)"><tspan x="0" y="0" style="" font-family="&apos;Montserrat-Regular&apos;" font-size="10px">Q</tspan><tspan x="8" y="0" style="" font-family="&apos;Montserrat-Regular&apos;" font-size="10px">C</tspan></text><text transform="matrix(1 0 0 1 14.4004 -213)" style="" font-family="&apos;Montserrat-Regular&apos;" font-size="10px">trend</text><text transform="matrix(1 0 0 1 103.4653 -213)"><tspan x="0" y="0" style="" font-family="&apos;Montserrat-Regular&apos;" font-size="10px">risk and</tspan><tspan x="1.5" y="12" style="" font-family="&apos;Montserrat-Regular&apos;" font-size="10px">re</tspan><tspan x="15.26" y="12" style="" font-family="&apos;Montserrat-Regular&apos;" font-size="10px">w</tspan><tspan x="25.25" y="12" style="" font-family="&apos;Montserrat-Regular&apos;" font-size="10px">ard</tspan></text><text transform="matrix(1 0 0 1 199.5405 -213)"><tspan x="0" y="0" style="" font-family="&apos;Montserrat-Regular&apos;" font-size="10px">p</tspan><tspan x="6.71" y="0" style="" font-family="&apos;Montserrat-Regular&apos;" font-size="10px">l</tspan><tspan x="12.02" y="0" style="" font-family="&apos;Montserrat-Regular&apos;" font-size="10px">anner</tspan></text><text transform="matrix(1 0 0 1 295.6504 -213)"><tspan x="0" y="0" style="" font-family="&apos;Montserrat-Regular&apos;" font-size="10px">c</tspan><tspan x="6.83" y="0" style="" font-family="&apos;Montserrat-Regular&apos;" font-size="10px">ontent</tspan><tspan x="-6.43" y="12" style="" font-family="&apos;Montserrat-Regular&apos;" font-size="10px">marketing</tspan></text><text transform="matrix(1 0 0 1 -172.2749 -117)"><tspan x="0" y="0" style="" font-family="&apos;Montserrat-Regular&apos;" font-size="10px">time</tspan><tspan x="-25.35" y="12" style="" font-family="&apos;Montserrat-Regular&apos;" font-size="10px">man</tspan><tspan x="-0.76" y="12" style="" font-family="&apos;Montserrat-Regular&apos;" font-size="10px">a</tspan><tspan x="6.33" y="12" style="" font-family="&apos;Montserrat-Regular&apos;" font-size="10px">gement</tspan></text><text transform="matrix(1 0 0 1 -76.4248 -117)" style="" font-family="&apos;Montserrat-Regular&apos;" font-size="10px">mail</text><text transform="matrix(1 0 0 1 7.2705 -117)" style="" font-family="&apos;Montserrat-Regular&apos;" font-size="10px">security</text><text transform="matrix(1 0 0 1 108.8604 -117)"><tspan x="0" y="0" style="" font-family="&apos;Montserrat-Regular&apos;" font-size="10px">money</tspan><tspan x="-7.71" y="12" style="" font-family="&apos;Montserrat-Regular&apos;" font-size="10px">transfer</tspan></text><text transform="matrix(1 0 0 1 200.585 -117)"><tspan x="0" y="0" style="" font-family="&apos;Montserrat-Regular&apos;" font-size="10px">gr</tspan><tspan x="14.74" y="0" style="" font-family="&apos;Montserrat-Regular&apos;" font-size="10px">o</tspan><tspan x="22.77" y="0" style="" font-family="&apos;Montserrat-Regular&apos;" font-size="10px">wth</tspan></text><text transform="matrix(1 0 0 1 298.4253 -117)"><tspan x="0" y="0" style="" font-family="&apos;Montserrat-Regular&apos;" font-size="10px">market</tspan><tspan x="-6.355" y="12" style="" font-family="&apos;Montserrat-Regular&apos;" font-size="10px">research</tspan></text><text transform="matrix(1 0 0 1 -199.0547 -21)" style="" font-family="&apos;Montserrat-Regular&apos;" font-size="10px">professional</text><text transform="matrix(1 0 0 1 -74.8047 -21)" style="" font-family="&apos;Montserrat-Regular&apos;" font-size="10px">R&amp;D</text><text transform="matrix(1 0 0 1 16.5 -21)"><tspan x="0" y="0" style="" font-family="&apos;Montserrat-Regular&apos;" font-size="10px">s</tspan><tspan x="6.09" y="0" style="" font-family="&apos;Montserrat-Regular&apos;" font-size="10px">afty</tspan></text><text transform="matrix(1 0 0 1 102.2251 -21)"><tspan x="0" y="0" style="" font-family="&apos;Montserrat-Regular&apos;" font-size="10px">l</tspan><tspan x="5.24" y="0" style="" font-family="&apos;Montserrat-Regular&apos;" font-size="10px">o</tspan><tspan x="13.14" y="0" style="" font-family="&apos;Montserrat-Regular&apos;" font-size="10px">gistics</tspan></text><text transform="matrix(1 0 0 1 191.2256 -21)" style="" font-family="&apos;Montserrat-Regular&apos;" font-size="10px">investment</text><text transform="matrix(1 0 0 1 306.02 -21)"><tspan x="0" y="0" style="" font-family="&apos;Montserrat-Regular&apos;" font-size="10px">g</tspan><tspan x="7.51" y="0" style="" font-family="&apos;Montserrat-Regular&apos;" font-size="10px">o</tspan><tspan x="15.46" y="0" style="" font-family="&apos;Montserrat-Regular&apos;" font-size="10px">al</tspan></text><text transform="matrix(1 0 0 1 -183.2646 75)" style="" font-family="&apos;Montserrat-Regular&apos;" font-size="10px">meeting</text><text transform="matrix(1 0 0 1 -83.3647 75)"><tspan x="0" y="0" style="" font-family="&apos;Montserrat-Regular&apos;" font-size="10px">online</tspan><tspan x="2.73" y="12" style="" font-family="&apos;Montserrat-Regular&apos;" font-size="10px">s</tspan><tspan x="8.89" y="12" style="" font-family="&apos;Montserrat-Regular&apos;" font-size="10px">t</tspan><tspan x="14.12" y="12" style="" font-family="&apos;Montserrat-Regular&apos;" font-size="10px">ore</tspan></text><text transform="matrix(1 0 0 1 -4.5244 75)" style="" font-family="&apos;Montserrat-Regular&apos;" font-size="10px">opportunity</text><text transform="matrix(1 0 0 1 97.6851 75)" style="" font-family="&apos;Montserrat-Regular&apos;" font-size="10px">insurance</text><text transform="matrix(1 0 0 1 195.6802 75)" style="" font-family="&apos;Montserrat-Regular&apos;" font-size="10px">specialist</text><text transform="matrix(1 0 0 1 284.6006 75)" style="" font-family="&apos;Montserrat-Regular&apos;" font-size="10px">centralized</text></g><path d="M60.631,16.07l-58,23c-0.347,0.138-0.588,0.457-0.626,0.828c-0.038,0.371,0.134,0.732,0.446,0.938l10.938,7.178  l6.717,13.434c0.007,0.015,0.019,0.025,0.027,0.039c0.023,0.041,0.051,0.078,0.08,0.115c0.028,0.037,0.056,0.074,0.089,0.106  c0.031,0.031,0.066,0.056,0.101,0.083c0.039,0.03,0.078,0.058,0.12,0.082c0.014,0.008,0.024,0.019,0.038,0.026  c0.014,0.007,0.03,0.004,0.045,0.01C20.73,61.963,20.861,62,21,62c0.076,0,0.153-0.009,0.23-0.026  c0.016-0.004,0.029-0.014,0.044-0.019c0.054-0.016,0.103-0.041,0.154-0.066c0.051-0.025,0.102-0.047,0.147-0.079  c0.012-0.009,0.026-0.011,0.038-0.021l5.842-4.544l6.996,4.591C34.616,61.944,34.807,62,35,62c0.076,0,0.151-0.009,0.226-0.026  c0.267-0.062,0.496-0.229,0.635-0.465l26-44c0.218-0.368,0.177-0.834-0.101-1.158C61.482,16.025,61.029,15.911,60.631,16.07z   M16.717,50.198L20,52.352v4.411L16.717,50.198z M22,58.955v-5.29l3.689,2.421L22,58.955z M34.672,59.589l-6.715-4.407  c-0.001,0-0.001-0.001-0.001-0.001l-5.184-3.402l30.887-27.026l-1.317-1.506L21.036,50.64l-5.295-3.475L37.492,34.87l-0.984-1.74  L13.86,45.931L5.158,40.22l53.495-21.213L34.672,59.589z"></path><path d="M4,32.002c0,0.691,0.025,1.389,0.075,2.071l1.995-0.146C6.023,33.293,6,32.646,6,32.002H4z"></path><path d="M7.125,24.413l-1.913-0.584c-0.2,0.655-0.378,1.329-0.53,2.004l1.951,0.439C6.774,25.646,6.939,25.021,7.125,24.413z"></path><path d="M8.518,20.824l-1.805-0.863c-0.296,0.62-0.573,1.262-0.823,1.906l1.864,0.723C7.986,21.993,8.243,21.398,8.518,20.824z"></path><path d="M49.238,12.535c0.475,0.422,0.944,0.869,1.394,1.331l1.433-1.396c-0.484-0.496-0.988-0.978-1.5-1.431L49.238,12.535z"></path><path d="M12.81,14.457l-1.475-1.352c-0.462,0.505-0.915,1.037-1.343,1.582l1.572,1.236C11.962,15.418,12.381,14.925,12.81,14.457z"></path><path d="M10.429,17.479L8.77,16.362c-0.387,0.575-0.755,1.168-1.095,1.762l1.736,0.992C9.727,18.564,10.069,18.014,10.429,17.479z"></path><path d="M15.609,11.815l-1.262-1.551c-0.534,0.434-1.059,0.894-1.559,1.365l1.373,1.455C14.626,12.646,15.113,12.22,15.609,11.815z"></path><path d="M4.302,27.873c-0.101,0.681-0.177,1.373-0.227,2.059l1.995,0.146c0.046-0.638,0.117-1.281,0.21-1.914L4.302,27.873z"></path><path d="M41.027,7.609l0.696-1.875c-0.643-0.238-1.307-0.457-1.973-0.647l-0.552,1.922C39.816,7.187,40.432,7.388,41.027,7.609z"></path><path d="M35.429,6.224c0.626,0.083,1.266,0.191,1.901,0.322l0.404-1.959c-0.682-0.141-1.37-0.257-2.043-0.346L35.429,6.224z"></path><path d="M54.555,15.405c-0.352-0.476-0.719-0.942-1.1-1.396l-1.532,1.285c0.354,0.423,0.696,0.856,1.023,1.301L54.555,15.405z"></path><path d="M44.527,9.211l0.965-1.752c-0.601-0.331-1.224-0.645-1.853-0.933l-0.833,1.818C43.39,8.612,43.969,8.903,44.527,9.211z"></path><path d="M47.752,11.313l1.213-1.59c-0.548-0.418-1.118-0.82-1.694-1.196l-1.092,1.676C46.714,10.551,47.243,10.925,47.752,11.313z"></path><path d="M17.147,10.658c0.526-0.367,1.071-0.718,1.618-1.042l-1.02-1.721c-0.589,0.349-1.176,0.727-1.743,1.122L17.147,10.658z"></path><path d="M29.486,4.111C28.8,4.173,28.108,4.26,27.43,4.372l0.324,1.973c0.63-0.104,1.272-0.185,1.91-0.241L29.486,4.111z"></path><path d="M25.868,6.728l-0.47-1.943c-0.669,0.161-1.34,0.35-1.995,0.561l0.612,1.904C24.623,7.053,25.247,6.878,25.868,6.728z"></path><path d="M31.585,6.003L32,6c0.507,0,1.011,0.014,1.512,0.043l0.116-1.996C33.089,4.016,32.546,4,32,4l-0.442,0.003L31.585,6.003z"></path><path d="M22.208,7.905l-0.755-1.852c-0.634,0.258-1.269,0.545-1.887,0.852l0.889,1.791C21.028,8.412,21.619,8.146,22.208,7.905z"></path><path d="M49.841,50.914l1.372,1.455c0.499-0.47,0.988-0.967,1.455-1.478l-1.477-1.35C50.758,50.017,50.304,50.478,49.841,50.914z"></path><path d="M52.438,48.072l1.569,1.24c0.424-0.538,0.836-1.102,1.223-1.677l-1.658-1.117C53.213,47.052,52.831,47.574,52.438,48.072z"></path><path d="M57.367,37.731l1.951,0.439c0.151-0.671,0.278-1.356,0.379-2.039l-1.979-0.293C57.625,36.473,57.506,37.109,57.367,37.731z"></path><path d="M43.543,55.304l0.891,1.791c0.62-0.309,1.232-0.642,1.821-0.99l-1.019-1.721C44.688,54.708,44.119,55.018,43.543,55.304z"></path><path d="M46.854,53.342l1.145,1.641c0.565-0.395,1.122-0.814,1.655-1.247l-1.262-1.553C47.896,52.586,47.379,52.976,46.854,53.342z"></path><path d="M57.93,33.924l1.995,0.146C59.975,33.388,60,32.691,60,32h-2C58,32.643,57.977,33.29,57.93,33.924z"></path><path d="M56.245,41.411l1.864,0.723c0.25-0.643,0.478-1.302,0.678-1.959l-1.913-0.584C56.688,40.201,56.477,40.813,56.245,41.411z"></path><path d="M54.59,44.884l1.736,0.992c0.343-0.602,0.667-1.22,0.961-1.837l-1.806-0.861C55.208,43.752,54.909,44.326,54.59,44.884z"></path><path d="M61,6c-1.654,0-3-1.346-3-3c0-0.553-0.448-1-1-1s-1,0.447-1,1c0,1.654-1.346,3-3,3c-0.552,0-1,0.447-1,1s0.448,1,1,1  c1.654,0,3,1.346,3,3c0,0.553,0.448,1,1,1s1-0.447,1-1c0-1.654,1.346-3,3-3c0.552,0,1-0.447,1-1S61.552,6,61,6z M57,8.003  C56.715,7.623,56.376,7.285,55.997,7C56.376,6.715,56.715,6.377,57,5.997c0.285,0.38,0.624,0.718,1.003,1.003  C57.624,7.285,57.285,7.623,57,8.003z"></path><path d="M19,23c0,0.553,0.448,1,1,1c1.654,0,3,1.346,3,3c0,0.553,0.448,1,1,1s1-0.447,1-1c0-1.654,1.346-3,3-3c0.552,0,1-0.447,1-1  s-0.448-1-1-1c-1.654,0-3-1.346-3-3c0-0.553-0.448-1-1-1s-1,0.447-1,1c0,1.654-1.346,3-3,3C19.448,22,19,22.447,19,23z M24,21.997  c0.285,0.38,0.624,0.718,1.003,1.003c-0.379,0.285-0.718,0.623-1.003,1.003c-0.285-0.38-0.624-0.718-1.003-1.003  C23.376,22.715,23.715,22.377,24,21.997z"></path></svg>