<svg width="185" height="42" viewBox="0 0 185 42" fill="none" xmlns="http://www.w3.org/2000/svg">
<path d="M12.612 41.468C14.9 41.468 16.902 41.0953 18.618 40.35C20.334 39.6047 21.6513 38.5733 22.57 37.256C23.4886 35.9387 23.948 34.448 23.948 32.784C23.9133 30.8773 23.402 29.3433 22.414 28.182C21.426 27.0207 20.256 26.1627 18.904 25.608C17.552 25.0533 15.836 24.516 13.756 23.996C11.7106 23.476 10.2026 22.9647 9.23195 22.462C8.26129 21.9593 7.77595 21.2227 7.77595 20.252C7.77595 19.3853 8.13129 18.7093 8.84195 18.224C9.55262 17.7387 10.5666 17.496 11.884 17.496C13.3053 17.496 14.4406 17.834 15.29 18.51C16.1393 19.186 16.616 20.096 16.72 21.24H23.688C23.48 18.328 22.3533 16.014 20.308 14.298C18.2626 12.582 15.524 11.724 12.092 11.724C9.76929 11.724 7.74995 12.1053 6.03395 12.868C4.31795 13.6307 3.00062 14.6707 2.08195 15.988C1.16329 17.3053 0.703954 18.7613 0.703954 20.356C0.703954 22.2973 1.19795 23.84 2.18595 24.984C3.17395 26.128 4.35262 26.9773 5.72195 27.532C7.09129 28.0867 8.85062 28.624 11 29.144C13.08 29.6987 14.5966 30.21 15.55 30.678C16.5033 31.146 16.98 31.848 16.98 32.784C16.98 33.6507 16.59 34.3613 15.81 34.916C15.03 35.4707 13.9466 35.748 12.56 35.748C11.1386 35.748 9.95129 35.384 8.99795 34.656C8.04462 33.928 7.49862 33.0093 7.35995 31.9H0.0279541C0.131954 33.668 0.729954 35.28 1.82195 36.736C2.91395 38.192 4.39595 39.3447 6.26795 40.194C8.13995 41.0433 10.2546 41.468 12.612 41.468ZM35.208 41V28.728L44.984 41H54.448L41.656 26.648L54.344 12.192H44.88L35.208 24.412V2.51999H27.928V41H35.208ZM59.988 8.75999C61.2706 8.75999 62.3366 8.35266 63.186 7.53799C64.0353 6.72333 64.46 5.70933 64.46 4.49599C64.46 3.28266 64.0353 2.26866 63.186 1.45399C62.3366 0.639328 61.2706 0.231995 59.988 0.231995C58.7053 0.231995 57.6393 0.639328 56.79 1.45399C55.9406 2.26866 55.516 3.28266 55.516 4.49599C55.516 5.70933 55.9406 6.72333 56.79 7.53799C57.6393 8.35266 58.7053 8.75999 59.988 8.75999ZM63.576 41V12.192H56.296V41H63.576ZM76.032 41V2.51999H68.752V41H76.032ZM88.488 41V2.51999H81.208V41H88.488ZM100.944 41V25.088C100.944 22.8 101.525 21.0407 102.686 19.81C103.847 18.5793 105.433 17.964 107.444 17.964C109.42 17.964 110.98 18.5793 112.124 19.81C113.268 21.0407 113.84 22.8 113.84 25.088V41H121.12V24.1C121.12 21.5 120.643 19.2727 119.69 17.418C118.737 15.5633 117.411 14.1593 115.712 13.206C114.013 12.2527 112.072 11.776 109.888 11.776C107.981 11.776 106.248 12.1313 104.688 12.842C103.128 13.5527 101.88 14.532 100.944 15.78V2.51999H93.664V41H100.944ZM133.628 41V12.192H126.348V41H133.628ZM146.396 41V26.648C146.396 23.9787 146.977 22.1067 148.138 21.032C149.299 19.9573 151.024 19.42 153.312 19.42H155.236V11.776C153.295 11.776 151.57 12.2093 150.062 13.076C148.554 13.9427 147.332 15.1387 146.396 16.664V12.192H139.116V41H146.396ZM170.708 41.468C174.14 41.468 177.035 40.5753 179.392 38.79C181.749 37.0047 183.344 34.7253 184.176 31.952H176.324C175.18 34.2747 173.256 35.436 170.552 35.436C168.68 35.436 167.103 34.8467 165.82 33.668C164.537 32.4893 163.809 30.86 163.636 28.78H184.696C184.835 27.948 184.904 27.012 184.904 25.972C184.904 23.164 184.306 20.6767 183.11 18.51C181.914 16.3433 180.233 14.6707 178.066 13.492C175.899 12.3133 173.447 11.724 170.708 11.724C167.865 11.724 165.352 12.3307 163.168 13.544C160.984 14.7573 159.285 16.4907 158.072 18.744C156.859 20.9973 156.252 23.6147 156.252 26.596C156.252 29.5427 156.867 32.1427 158.098 34.396C159.329 36.6493 161.045 38.3913 163.246 39.622C165.447 40.8527 167.935 41.468 170.708 41.468ZM177.364 23.892H163.688C163.965 21.9507 164.719 20.434 165.95 19.342C167.181 18.25 168.697 17.704 170.5 17.704C172.407 17.704 174.019 18.2673 175.336 19.394C176.653 20.5207 177.329 22.02 177.364 23.892Z" fill="white"/>
<path d="M12.612 41.468C14.9 41.468 16.902 41.0953 18.618 40.35C20.334 39.6047 21.6513 38.5733 22.57 37.256C23.4886 35.9387 23.948 34.448 23.948 32.784C23.9133 30.8773 23.402 29.3433 22.414 28.182C21.426 27.0207 20.256 26.1627 18.904 25.608C17.552 25.0533 15.836 24.516 13.756 23.996C11.7106 23.476 10.2026 22.9647 9.23195 22.462C8.26129 21.9593 7.77595 21.2227 7.77595 20.252C7.77595 19.3853 8.13129 18.7093 8.84195 18.224C9.55262 17.7387 10.5666 17.496 11.884 17.496C13.3053 17.496 14.4406 17.834 15.29 18.51C16.1393 19.186 16.616 20.096 16.72 21.24H23.688C23.48 18.328 22.3533 16.014 20.308 14.298C18.2626 12.582 15.524 11.724 12.092 11.724C9.76929 11.724 7.74995 12.1053 6.03395 12.868C4.31795 13.6307 3.00062 14.6707 2.08195 15.988C1.16329 17.3053 0.703954 18.7613 0.703954 20.356C0.703954 22.2973 1.19795 23.84 2.18595 24.984C3.17395 26.128 4.35262 26.9773 5.72195 27.532C7.09129 28.0867 8.85062 28.624 11 29.144C13.08 29.6987 14.5966 30.21 15.55 30.678C16.5033 31.146 16.98 31.848 16.98 32.784C16.98 33.6507 16.59 34.3613 15.81 34.916C15.03 35.4707 13.9466 35.748 12.56 35.748C11.1386 35.748 9.95129 35.384 8.99795 34.656C8.04462 33.928 7.49862 33.0093 7.35995 31.9H0.0279541C0.131954 33.668 0.729954 35.28 1.82195 36.736C2.91395 38.192 4.39595 39.3447 6.26795 40.194C8.13995 41.0433 10.2546 41.468 12.612 41.468ZM35.208 41V28.728L44.984 41H54.448L41.656 26.648L54.344 12.192H44.88L35.208 24.412V2.51999H27.928V41H35.208ZM59.988 8.75999C61.2706 8.75999 62.3366 8.35266 63.186 7.53799C64.0353 6.72333 64.46 5.70933 64.46 4.49599C64.46 3.28266 64.0353 2.26866 63.186 1.45399C62.3366 0.639328 61.2706 0.231995 59.988 0.231995C58.7053 0.231995 57.6393 0.639328 56.79 1.45399C55.9406 2.26866 55.516 3.28266 55.516 4.49599C55.516 5.70933 55.9406 6.72333 56.79 7.53799C57.6393 8.35266 58.7053 8.75999 59.988 8.75999ZM63.576 41V12.192H56.296V41H63.576ZM76.032 41V2.51999H68.752V41H76.032ZM88.488 41V2.51999H81.208V41H88.488ZM100.944 41V25.088C100.944 22.8 101.525 21.0407 102.686 19.81C103.847 18.5793 105.433 17.964 107.444 17.964C109.42 17.964 110.98 18.5793 112.124 19.81C113.268 21.0407 113.84 22.8 113.84 25.088V41H121.12V24.1C121.12 21.5 120.643 19.2727 119.69 17.418C118.737 15.5633 117.411 14.1593 115.712 13.206C114.013 12.2527 112.072 11.776 109.888 11.776C107.981 11.776 106.248 12.1313 104.688 12.842C103.128 13.5527 101.88 14.532 100.944 15.78V2.51999H93.664V41H100.944ZM133.628 41V12.192H126.348V41H133.628ZM146.396 41V26.648C146.396 23.9787 146.977 22.1067 148.138 21.032C149.299 19.9573 151.024 19.42 153.312 19.42H155.236V11.776C153.295 11.776 151.57 12.2093 150.062 13.076C148.554 13.9427 147.332 15.1387 146.396 16.664V12.192H139.116V41H146.396ZM170.708 41.468C174.14 41.468 177.035 40.5753 179.392 38.79C181.749 37.0047 183.344 34.7253 184.176 31.952H176.324C175.18 34.2747 173.256 35.436 170.552 35.436C168.68 35.436 167.103 34.8467 165.82 33.668C164.537 32.4893 163.809 30.86 163.636 28.78H184.696C184.835 27.948 184.904 27.012 184.904 25.972C184.904 23.164 184.306 20.6767 183.11 18.51C181.914 16.3433 180.233 14.6707 178.066 13.492C175.899 12.3133 173.447 11.724 170.708 11.724C167.865 11.724 165.352 12.3307 163.168 13.544C160.984 14.7573 159.285 16.4907 158.072 18.744C156.859 20.9973 156.252 23.6147 156.252 26.596C156.252 29.5427 156.867 32.1427 158.098 34.396C159.329 36.6493 161.045 38.3913 163.246 39.622C165.447 40.8527 167.935 41.468 170.708 41.468ZM177.364 23.892H163.688C163.965 21.9507 164.719 20.434 165.95 19.342C167.181 18.25 168.697 17.704 170.5 17.704C172.407 17.704 174.019 18.2673 175.336 19.394C176.653 20.5207 177.329 22.02 177.364 23.892Z" fill="black"/>
</svg>
