<svg width="100" height="100" viewBox="0 0 100 100" fill="none" xmlns="http://www.w3.org/2000/svg">
<path d="M50 65.625C58.6156 65.625 65.625 58.6156 65.625 50C65.625 41.3844 58.6156 34.375 50 34.375C41.3844 34.375 34.375 41.3844 34.375 50C34.375 58.6156 41.3844 65.625 50 65.625ZM50 37.5C56.8922 37.5 62.5 43.1078 62.5 50C62.5 56.8922 56.8922 62.5 50 62.5C43.1078 62.5 37.5 56.8922 37.5 50C37.5 43.1078 43.1078 37.5 50 37.5Z" fill="white"/>
<path d="M35.6375 26.7984C35.3438 26.5047 34.9484 26.3406 34.5328 26.3406C34.1172 26.3406 33.7203 26.5047 33.4281 26.7984L26.7984 33.4281C26.5047 33.7219 26.3406 34.1187 26.3406 34.5328C26.3406 34.9469 26.5047 35.3453 26.7984 35.6375L29.6203 38.4578C28.6688 40.1328 27.9312 41.9047 27.4203 43.75H23.4375C22.5734 43.75 21.875 44.45 21.875 45.3125V54.6875C21.875 55.55 22.5734 56.25 23.4375 56.25H27.4188C27.9297 58.0984 28.6656 59.8719 29.6156 61.5453L26.7969 64.3641C26.5031 64.6578 26.3391 65.0547 26.3391 65.4688C26.3391 65.8828 26.5031 66.2812 26.7969 66.5734L33.4266 73.2031C34.0375 73.8141 35.025 73.8141 35.6359 73.2031L38.4547 70.3859C40.1281 71.3375 41.9016 72.0734 43.75 72.5828V76.5625C43.75 77.425 44.4484 78.125 45.3125 78.125H54.6875C55.5516 78.125 56.25 77.425 56.25 76.5625V72.5812C58.0953 72.0703 59.8672 71.3344 61.5438 70.3812L64.3641 73.2016C64.6578 73.4953 65.0531 73.6594 65.4688 73.6594C65.8844 73.6594 66.2812 73.4953 66.5734 73.2016L73.2031 66.5719C73.4969 66.2781 73.6609 65.8812 73.6609 65.4672C73.6609 65.0531 73.4969 64.6547 73.2031 64.3625L70.3812 61.5422C71.3328 59.8672 72.0703 58.0953 72.5812 56.25H76.5625C77.4266 56.25 78.125 55.55 78.125 54.6875V45.3125C78.125 44.45 77.4266 43.75 76.5625 43.75H72.5812C72.0703 41.9016 71.3344 40.1281 70.3844 38.4547L73.2031 35.6359C73.4969 35.3422 73.6609 34.9453 73.6609 34.5313C73.6609 34.1172 73.4969 33.7187 73.2031 33.4266L66.5734 26.7969C65.9625 26.1859 64.975 26.1859 64.3641 26.7969L61.5453 29.6141C59.8719 28.6625 58.0984 27.9266 56.25 27.4172V23.4375C56.25 22.575 55.5516 21.875 54.6875 21.875H45.3125C44.4484 21.875 43.75 22.575 43.75 23.4375V27.4188C41.9047 27.9297 40.1328 28.6656 38.4562 29.6187L35.6375 26.7984ZM45.6469 30.1672C46.3641 30.0109 46.875 29.375 46.875 28.6406V25H53.125V28.6406C53.125 29.375 53.6359 30.0094 54.3531 30.1672C56.6937 30.6797 58.9094 31.5984 60.9406 32.9016C61.5578 33.2969 62.3672 33.2109 62.8891 32.6906L65.4672 30.1125L69.8875 34.5328L67.3094 37.1109C66.7906 37.6297 66.7016 38.4406 67.0984 39.0594C68.4 41.0891 69.3203 43.3062 69.8328 45.6484C69.9906 46.3641 70.625 46.875 71.3594 46.875H75V53.125H71.3594C70.625 53.125 69.9906 53.6359 69.8328 54.3531C69.3203 56.6891 68.4 58.9047 67.0953 60.9375C66.6984 61.5563 66.7875 62.3672 67.3063 62.8859L69.8875 65.4672L65.4672 69.8875L62.8875 67.3063C62.3672 66.7859 61.5562 66.7 60.9391 67.0953C58.9047 68.4 56.6891 69.3219 54.3531 69.8313C53.6359 69.9891 53.125 70.625 53.125 71.3594V75H46.875V71.3594C46.875 70.625 46.3641 69.9906 45.6469 69.8328C43.3063 69.3203 41.0906 68.4016 39.0594 67.0984C38.4406 66.7016 37.6312 66.7875 37.1109 67.3094L34.5328 69.8875L30.1125 65.4672L32.6906 62.8891C33.2094 62.3703 33.2984 61.5594 32.9016 60.9406C31.6 58.9109 30.6797 56.6937 30.1672 54.3516C30.0094 53.6359 29.375 53.125 28.6406 53.125H25V46.875H28.6406C29.375 46.875 30.0094 46.3641 30.1672 45.6469C30.6797 43.3109 31.6 41.0953 32.9047 39.0625C33.3016 38.4438 33.2125 37.6328 32.6937 37.1141L30.1125 34.5328L34.5328 30.1125L37.1125 32.6937C37.6344 33.2156 38.4453 33.3 39.0609 32.9047C41.0953 31.5984 43.3109 30.6781 45.6469 30.1672Z" fill="white"/>
<path d="M50 12.5C52.5844 12.5 54.6875 10.3969 54.6875 7.8125C54.6875 5.22812 52.5844 3.125 50 3.125C47.4156 3.125 45.3125 5.22812 45.3125 7.8125C45.3125 10.3969 47.4156 12.5 50 12.5ZM50 6.25C50.8625 6.25 51.5625 6.95156 51.5625 7.8125C51.5625 8.67344 50.8625 9.375 50 9.375C49.1375 9.375 48.4375 8.67344 48.4375 7.8125C48.4375 6.95156 49.1375 6.25 50 6.25Z" fill="white"/>
<path d="M50 87.5C47.4156 87.5 45.3125 89.6031 45.3125 92.1875C45.3125 94.7719 47.4156 96.875 50 96.875C52.5844 96.875 54.6875 94.7719 54.6875 92.1875C54.6875 89.6031 52.5844 87.5 50 87.5ZM50 93.75C49.1375 93.75 48.4375 93.0484 48.4375 92.1875C48.4375 91.3266 49.1375 90.625 50 90.625C50.8625 90.625 51.5625 91.3266 51.5625 92.1875C51.5625 93.0484 50.8625 93.75 50 93.75Z" fill="white"/>
<path d="M92.1875 45.3125C89.6031 45.3125 87.5 47.4156 87.5 50C87.5 52.5844 89.6031 54.6875 92.1875 54.6875C94.7719 54.6875 96.875 52.5844 96.875 50C96.875 47.4156 94.7719 45.3125 92.1875 45.3125ZM92.1875 51.5625C91.325 51.5625 90.625 50.8609 90.625 50C90.625 49.1391 91.325 48.4375 92.1875 48.4375C93.05 48.4375 93.75 49.1391 93.75 50C93.75 50.8609 93.05 51.5625 92.1875 51.5625Z" fill="white"/>
<path d="M7.8125 54.6875C10.3969 54.6875 12.5 52.5844 12.5 50C12.5 47.4156 10.3969 45.3125 7.8125 45.3125C5.22812 45.3125 3.125 47.4156 3.125 50C3.125 52.5844 5.22812 54.6875 7.8125 54.6875ZM7.8125 48.4375C8.675 48.4375 9.375 49.1391 9.375 50C9.375 50.8609 8.675 51.5625 7.8125 51.5625C6.95 51.5625 6.25 50.8609 6.25 50C6.25 49.1391 6.95 48.4375 7.8125 48.4375Z" fill="white"/>
<path d="M30.2719 14.5063L31.3297 17.6813C31.5 18.1953 31.925 18.5828 32.4531 18.7078C32.5734 18.7359 32.6938 18.75 32.8125 18.75C33.2219 18.75 33.6219 18.5891 33.9172 18.2922L41.7297 10.4797C42.1484 10.0609 42.2938 9.44219 42.1063 8.88125C41.9203 8.32032 41.4313 7.9125 40.8453 7.82969L29.9078 6.26719C29.3641 6.18907 28.8328 6.39688 28.4875 6.8125C28.1391 7.22813 28.0328 7.79375 28.2047 8.30782L29.2688 11.5C17.7047 17.7469 9.41563 29.0047 7 41.9L10.0703 42.475C12.2812 30.6813 19.7813 20.3578 30.2719 14.5063ZM37.3109 10.4797L33.4969 14.2953L31.9688 9.71719L37.3109 10.4797Z" fill="white"/>
<path d="M93.0031 58.1016L89.9328 57.525C87.7172 69.3281 80.2156 79.6531 69.7266 85.4953L68.6672 82.3187C68.4969 81.8047 68.0719 81.4172 67.5438 81.2922C67.0172 81.1656 66.4641 81.325 66.0797 81.7078L58.2672 89.5203C57.8484 89.9391 57.7031 90.5578 57.8906 91.1187C58.0766 91.6797 58.5656 92.0875 59.1516 92.1703L70.0891 93.7328C70.1656 93.7453 70.2391 93.75 70.3125 93.75C70.7719 93.75 71.2125 93.5469 71.5125 93.1891C71.8609 92.7734 71.9672 92.2078 71.7953 91.6937L70.7313 88.5016C82.2922 82.2625 90.5828 71.0047 93.0031 58.1016ZM62.6891 89.5203L66.5031 85.7047L68.0313 90.2828L62.6891 89.5203Z" fill="white"/>
<path d="M85.4953 30.2703L82.3172 31.3297C81.8031 31.5016 81.4156 31.9265 81.2906 32.4531C81.1672 32.9797 81.3234 33.5344 81.7078 33.9172L89.5203 41.7297C89.8172 42.0281 90.2172 42.1875 90.625 42.1875C90.7891 42.1875 90.9578 42.1609 91.1187 42.1078C91.6797 41.9203 92.0875 41.4328 92.1719 40.8469L93.7344 29.9094C93.8109 29.3734 93.6047 28.8344 93.1875 28.489C92.7703 28.1422 92.2047 28.039 91.6922 28.2062L88.5016 29.2703C82.2797 17.7125 71.0219 9.42343 58.1016 6.9953L57.525 10.0672C69.3437 12.2875 79.6672 19.789 85.4953 30.2703ZM89.5203 37.3109L85.7062 33.4953L90.2844 31.9687L89.5203 37.3109Z" fill="white"/>
<path d="M18.7094 67.5469C18.8328 67.0203 18.6766 66.4656 18.2922 66.0828L10.4797 58.2703C10.0609 57.85 9.44376 57.7047 8.88126 57.8922C8.32032 58.0797 7.91251 58.5672 7.82814 59.1531L6.26564 70.0906C6.18907 70.6266 6.39532 71.1656 6.81251 71.5109C7.09689 71.75 7.45314 71.875 7.81251 71.875C7.97814 71.875 8.14532 71.8484 8.30626 71.7953L11.4969 70.7313C17.7281 82.3047 28.9875 90.5937 41.9 93.0047L42.4734 89.9328C30.6609 87.7281 20.3375 80.2266 14.5031 69.7281L17.6813 68.6688C18.1969 68.4984 18.5844 68.0734 18.7094 67.5469ZM10.4797 62.6891L14.2938 66.5047L9.71564 68.0312L10.4797 62.6891Z" fill="white"/>
</svg>
