<svg height='100px' width='100px'  fill="#FFFFFF" xmlns="http://www.w3.org/2000/svg" xmlns:xlink="http://www.w3.org/1999/xlink" version="1.1" x="0px" y="0px" viewBox="0 0 66 66" enable-background="new 0 0 66 66" xml:space="preserve"><g><path d="M50.2,1c-5.9,0-11,3.6-13.2,8.7c-2.4-0.7-4.9-1-7.5-1c0,0,0,0,0,0c0,0,0,0,0,0C14,8.6,1.4,21.3,1.4,36.8   C1.4,52.2,13.9,65,29.5,65c0,0,0,0,0,0c0,0,0,0,0,0c19.1,0,32.6-18.6,26.8-36.6c4.9-2.3,8.2-7.3,8.2-13C64.6,7.5,58.2,1,50.2,1z    M52.7,49l-2.5-1.4c-0.5-0.3-1.1-0.1-1.4,0.4c-0.3,0.5-0.1,1.1,0.4,1.4l2.5,1.4c-2.1,3.3-4.9,6.1-8.2,8.2l-1.4-2.5   c-0.3-0.5-0.9-0.6-1.4-0.4c-0.5,0.3-0.6,0.9-0.4,1.4l1.4,2.5c-3.4,1.8-7.2,2.8-11.2,3v-2.9c0-0.6-0.4-1-1-1s-1,0.4-1,1V63   c-4-0.2-7.8-1.2-11.2-3l1.4-2.5c0.3-0.5,0.1-1.1-0.4-1.4c-0.5-0.3-1.1-0.1-1.4,0.4L15.6,59c-3.3-2.1-6.1-4.9-8.2-8.2l2.5-1.4   c0.5-0.3,0.6-0.9,0.4-1.4c-0.3-0.5-0.9-0.6-1.4-0.4L6.4,49c-1.8-3.4-2.9-7.2-3-11.2h2.9c0.6,0,1-0.4,1-1s-0.4-1-1-1H3.4   c0.2-4,1.2-7.8,3-11.2L8.9,26c0.5,0.3,1.1,0.1,1.4-0.4c0.3-0.5,0.1-1.1-0.4-1.4l-2.5-1.4c2.1-3.3,4.9-6.1,8.2-8.2l1.4,2.5   c0.3,0.5,0.9,0.6,1.4,0.4c0.5-0.3,0.6-0.9,0.4-1.4l-1.4-2.5c3.4-1.8,7.2-2.9,11.2-3v2.9c0,0.6,0.4,1,1,1s1-0.4,1-1v-2.9   c2,0.1,3.9,0.4,5.8,0.9c-0.3,1.2-0.5,2.5-0.5,3.8c0,7.9,6.5,14.4,14.4,14.4c1.5,0,2.9-0.2,4.3-0.7c0.7,2.2,1.1,4.4,1.1,6.7h-2.9   c-0.6,0-1,0.4-1,1s0.4,1,1,1h2.9C55.6,41.9,54.5,45.7,52.7,49z M50.2,27.8c-6.8,0-12.4-5.6-12.4-12.4S43.4,3,50.2,3   c6.8,0,12.4,5.6,12.4,12.4S57.1,27.8,50.2,27.8z"></path><path d="M51.1,14.4L51.1,14.4L51,10.5c1.1,0.2,2,0.5,2.9,1.2l1.3-1.9C54,8.9,52.5,8.4,51,8.2V7.2h-1.3v1c-2.5,0.1-4.5,1.6-4.5,4.2   c0,2.7,1.9,3.5,4.5,4.2v4c-1.2-0.2-2.4-0.8-3.6-1.8l-1.5,1.8c1.5,1.3,3.2,2.1,5.1,2.2v1.5H51v-1.5c2.6-0.1,4.7-1.6,4.7-4.2   C55.7,15.9,53.7,15,51.1,14.4z M49.7,14c-1.2-0.4-2-0.7-2-1.9c0-1,0.9-1.6,2-1.7V14z M51,20.6v-3.7c1.2,0.4,2.1,0.7,2.1,1.9   C53.2,19.9,52.1,20.5,51,20.6z"></path><path d="M29.6,23c-0.6,0-1,0.4-1,1v11.8h-14c-0.6,0-1,0.4-1,1s0.4,1,1,1h15c0.6,0,1-0.4,1-1V24C30.6,23.5,30.1,23,29.6,23z"></path></g></svg>