<svg width="281px" height="25px" viewBox="0 0 281 25" version="1.1" xmlns="http://www.w3.org/2000/svg" xmlns:xlink="http://www.w3.org/1999/xlink">
    <g id="Page-1" stroke="none" stroke-width="1" fill="none" fill-rule="evenodd">
        <g id="new-torii" transform="translate(-32.000000, -34.000000)" fill="#252525" fill-rule="nonzero">
            <g id="header">
                <g id="front">
                    <g id="header">
                        <path d="M49.12,58.0921053 L49.12,41.0681053 L57.888,41.0681053 L57.888,34.0921053 L32.48,34.0921053 L32.48,41.0681053 L41.248,41.0681053 L41.248,58.0921053 L49.12,58.0921053 Z M77.568,58.0921053 C79.36,58.0921053 80.96,57.9267719 82.368,57.5961053 C83.776,57.2654386 84.96,56.7321053 85.92,55.9961053 C86.88,55.2601053 87.6106667,54.2947719 88.112,53.1001053 C88.6133333,51.9054386 88.864,50.4441053 88.864,48.7161053 L88.864,48.7161053 L88.864,43.4681053 C88.864,41.7401053 88.6133333,40.2787719 88.112,39.0841053 C87.6106667,37.8894386 86.88,36.9241053 85.92,36.1881053 C84.96,35.4521053 83.776,34.9187719 82.368,34.5881053 C80.96,34.2574386 79.36,34.0921053 77.568,34.0921053 L77.568,34.0921053 L70.72,34.0921053 C68.928,34.0921053 67.328,34.2574386 65.92,34.5881053 C64.512,34.9187719 63.328,35.4521053 62.368,36.1881053 C61.408,36.9241053 60.6773333,37.8894386 60.176,39.0841053 C59.6746667,40.2787719 59.424,41.7401053 59.424,43.4681053 L59.424,43.4681053 L59.424,48.7161053 C59.424,50.4441053 59.6746667,51.9054386 60.176,53.1001053 C60.6773333,54.2947719 61.408,55.2601053 62.368,55.9961053 C63.328,56.7321053 64.512,57.2654386 65.92,57.5961053 C67.328,57.9267719 68.928,58.0921053 70.72,58.0921053 L70.72,58.0921053 L77.568,58.0921053 Z M77.568,51.1161053 L70.72,51.1161053 C69.6533333,51.1161053 68.816,50.9347719 68.208,50.5721053 C67.6,50.2094386 67.296,49.5907719 67.296,48.7161053 L67.296,48.7161053 L67.296,43.4681053 C67.296,42.5934386 67.6,41.9747719 68.208,41.6121053 C68.816,41.2494386 69.6533333,41.0681053 70.72,41.0681053 L70.72,41.0681053 L77.568,41.0681053 C78.6346667,41.0681053 79.472,41.2494386 80.08,41.6121053 C80.688,41.9747719 80.992,42.5934386 80.992,43.4681053 L80.992,43.4681053 L80.992,48.7161053 C80.992,49.5907719 80.688,50.2094386 80.08,50.5721053 C79.472,50.9347719 78.6346667,51.1161053 77.568,51.1161053 L77.568,51.1161053 Z M99.392,58.0921053 L99.392,52.8441053 L105.632,52.8441053 L110.08,58.0921053 L119.456,58.0921053 L114.112,51.7881053 C115.648,51.1481053 116.826667,50.1561053 117.648,48.8121053 C118.469333,47.4681053 118.88,45.6867719 118.88,43.4681053 C118.88,41.7401053 118.629333,40.2787719 118.128,39.0841053 C117.626667,37.8894386 116.896,36.9241053 115.936,36.1881053 C114.976,35.4521053 113.792,34.9187719 112.384,34.5881053 C110.976,34.2574386 109.376,34.0921053 107.584,34.0921053 L107.584,34.0921053 L91.52,34.0921053 L91.52,58.0921053 L99.392,58.0921053 Z M107.584,45.8681053 L99.392,45.8681053 L99.392,41.0681053 L107.584,41.0681053 C108.650667,41.0681053 109.488,41.2494386 110.096,41.6121053 C110.704,41.9747719 111.008,42.5934386 111.008,43.4681053 C111.008,44.3427719 110.704,44.9614386 110.096,45.3241053 C109.488,45.6867719 108.650667,45.8681053 107.584,45.8681053 L107.584,45.8681053 Z M129.248,58.0921053 L129.248,34.0921053 L121.376,34.0921053 L121.376,58.0921053 L129.248,58.0921053 Z M140.32,58.0921053 L140.32,34.0921053 L132.448,34.0921053 L132.448,58.0921053 L140.32,58.0921053 Z M172.384,58.0921053 C173.856,58.0921053 175.157333,57.9587719 176.288,57.6921053 C177.418667,57.4254386 178.378667,56.9934386 179.168,56.3961053 C179.957333,55.7987719 180.554667,55.0201053 180.96,54.0601053 C181.365333,53.1001053 181.568,51.9161053 181.568,50.5081053 C181.568,49.1001053 181.365333,47.9161053 180.96,46.9561053 C180.554667,45.9961053 179.957333,45.2174386 179.168,44.6201053 C178.378667,44.0227719 177.418667,43.5907719 176.288,43.3241053 C175.157333,43.0574386 173.856,42.9241053 172.384,42.9241053 L172.384,42.9241053 L164.864,42.9241053 C164.458667,42.9241053 164.133333,42.8547719 163.888,42.7161053 C163.642667,42.5774386 163.52,42.3481053 163.52,42.0281053 C163.52,41.6654386 163.642667,41.4147719 163.888,41.2761053 C164.133333,41.1374386 164.458667,41.0681053 164.864,41.0681053 L164.864,41.0681053 L180.8,41.0681053 L180.8,34.0921053 L164.864,34.0921053 C163.392,34.0921053 162.090667,34.2254386 160.96,34.4921053 C159.829333,34.7587719 158.869333,35.1907719 158.08,35.7881053 C157.290667,36.3854386 156.693333,37.1641053 156.288,38.1241053 C155.882667,39.0841053 155.68,40.2681053 155.68,41.6761053 C155.68,43.0841053 155.882667,44.2681053 156.288,45.2281053 C156.693333,46.1881053 157.290667,46.9667719 158.08,47.5641053 C158.869333,48.1614386 159.829333,48.5934386 160.96,48.8601053 C162.090667,49.1267719 163.392,49.2601053 164.864,49.2601053 L164.864,49.2601053 L172.384,49.2601053 C172.789333,49.2601053 173.114667,49.3294386 173.36,49.4681053 C173.605333,49.6067719 173.728,49.8361053 173.728,50.1561053 C173.728,50.5187719 173.605333,50.7694386 173.36,50.9081053 C173.114667,51.0467719 172.789333,51.1161053 172.384,51.1161053 L172.384,51.1161053 L156.448,51.1161053 L156.448,58.0921053 L172.384,58.0921053 Z M199.648,58.0921053 L199.648,41.0681053 L208.416,41.0681053 L208.416,34.0921053 L183.008,34.0921053 L183.008,41.0681053 L191.776,41.0681053 L191.776,58.0921053 L199.648,58.0921053 Z M226.848,58.0921053 C228.64,58.0921053 230.24,57.9267719 231.648,57.5961053 C233.056,57.2654386 234.24,56.7321053 235.2,55.9961053 C236.16,55.2601053 236.890667,54.2947719 237.392,53.1001053 C237.893333,51.9054386 238.144,50.4441053 238.144,48.7161053 L238.144,48.7161053 L238.144,34.0921053 L230.272,34.0921053 L230.272,48.7161053 C230.272,49.5907719 229.968,50.2094386 229.36,50.5721053 C228.752,50.9347719 227.914667,51.1161053 226.848,51.1161053 L226.848,51.1161053 L221.664,51.1161053 C220.597333,51.1161053 219.76,50.9347719 219.152,50.5721053 C218.544,50.2094386 218.24,49.5907719 218.24,48.7161053 L218.24,48.7161053 L218.24,34.0921053 L210.368,34.0921053 L210.368,48.7161053 C210.368,50.4441053 210.618667,51.9054386 211.12,53.1001053 C211.621333,54.2947719 212.352,55.2601053 213.312,55.9961053 C214.272,56.7321053 215.456,57.2654386 216.864,57.5961053 C218.272,57.9267719 219.872,58.0921053 221.664,58.0921053 L221.664,58.0921053 L226.848,58.0921053 Z M258.336,58.0921053 C260.128,58.0921053 261.728,57.9267719 263.136,57.5961053 C264.544,57.2654386 265.728,56.7321053 266.688,55.9961053 C267.648,55.2601053 268.378667,54.2947719 268.88,53.1001053 C269.381333,51.9054386 269.632,50.4441053 269.632,48.7161053 L269.632,48.7161053 L269.632,43.4681053 C269.632,41.7401053 269.381333,40.2787719 268.88,39.0841053 C268.378667,37.8894386 267.648,36.9241053 266.688,36.1881053 C265.728,35.4521053 264.544,34.9187719 263.136,34.5881053 C261.728,34.2574386 260.128,34.0921053 258.336,34.0921053 L258.336,34.0921053 L241.216,34.0921053 L241.216,58.0921053 L258.336,58.0921053 Z M258.336,51.1161053 L249.088,51.1161053 L249.088,41.0681053 L258.336,41.0681053 C259.402667,41.0681053 260.24,41.2494386 260.848,41.6121053 C261.456,41.9747719 261.76,42.5934386 261.76,43.4681053 L261.76,43.4681053 L261.76,48.7161053 C261.76,49.5907719 261.456,50.2094386 260.848,50.5721053 C260.24,50.9347719 259.402667,51.1161053 258.336,51.1161053 L258.336,51.1161053 Z M280.16,58.0921053 L280.16,34.0921053 L272.288,34.0921053 L272.288,58.0921053 L280.16,58.0921053 Z M300.96,58.0921053 C302.752,58.0921053 304.352,57.9267719 305.76,57.5961053 C307.168,57.2654386 308.352,56.7321053 309.312,55.9961053 C310.272,55.2601053 311.002667,54.2947719 311.504,53.1001053 C312.005333,51.9054386 312.256,50.4441053 312.256,48.7161053 L312.256,48.7161053 L312.256,43.4681053 C312.256,41.7401053 312.005333,40.2787719 311.504,39.0841053 C311.002667,37.8894386 310.272,36.9241053 309.312,36.1881053 C308.352,35.4521053 307.168,34.9187719 305.76,34.5881053 C304.352,34.2574386 302.752,34.0921053 300.96,34.0921053 L300.96,34.0921053 L294.112,34.0921053 C292.32,34.0921053 290.72,34.2574386 289.312,34.5881053 C287.904,34.9187719 286.72,35.4521053 285.76,36.1881053 C284.8,36.9241053 284.069333,37.8894386 283.568,39.0841053 C283.066667,40.2787719 282.816,41.7401053 282.816,43.4681053 L282.816,43.4681053 L282.816,48.7161053 C282.816,50.4441053 283.066667,51.9054386 283.568,53.1001053 C284.069333,54.2947719 284.8,55.2601053 285.76,55.9961053 C286.72,56.7321053 287.904,57.2654386 289.312,57.5961053 C290.72,57.9267719 292.32,58.0921053 294.112,58.0921053 L294.112,58.0921053 L300.96,58.0921053 Z M300.96,51.1161053 L294.112,51.1161053 C293.045333,51.1161053 292.208,50.9347719 291.6,50.5721053 C290.992,50.2094386 290.688,49.5907719 290.688,48.7161053 L290.688,48.7161053 L290.688,43.4681053 C290.688,42.5934386 290.992,41.9747719 291.6,41.6121053 C292.208,41.2494386 293.045333,41.0681053 294.112,41.0681053 L294.112,41.0681053 L300.96,41.0681053 C302.026667,41.0681053 302.864,41.2494386 303.472,41.6121053 C304.08,41.9747719 304.384,42.5934386 304.384,43.4681053 L304.384,43.4681053 L304.384,48.7161053 C304.384,49.5907719 304.08,50.2094386 303.472,50.5721053 C302.864,50.9347719 302.026667,51.1161053 300.96,51.1161053 L300.96,51.1161053 Z" id="TORIISTUDIO"></path>
                    </g>
                </g>
            </g>
        </g>
    </g>
</svg>