<svg height='100px' width='100px'  fill="#FFFFFF" xmlns:dc="http://purl.org/dc/elements/1.1/" xmlns:cc="http://creativecommons.org/ns#" xmlns:rdf="http://www.w3.org/1999/02/22-rdf-syntax-ns#" xmlns:svg="http://www.w3.org/2000/svg" xmlns="http://www.w3.org/2000/svg" xmlns:sodipodi="http://sodipodi.sourceforge.net/DTD/sodipodi-0.dtd" xmlns:inkscape="http://www.inkscape.org/namespaces/inkscape" version="1.1" x="0px" y="0px" viewBox="0 0 99.999999 99.999999" xml:space="preserve"><path d="m 48.334451,1.7126896 c -25.272283,0 -45.8344511,20.5621674 -45.8344511,45.8344504 0,13.348658 5.7397753,25.380305 14.8766651,33.763842 l -0.04557,0.03907 1.487667,1.253285 c 0.09667,0.08167 0.202816,0.147869 0.299485,0.227871 0.79002,0.655016 1.608113,1.276619 2.441466,1.878301 0.270007,0.195004 0.538815,0.391103 0.813822,0.57944 0.890022,0.613349 1.804342,1.19641 2.737697,1.74809 0.203338,0.120003 0.40699,0.234902 0.611995,0.351572 1.021691,0.58168 2.066482,1.130809 3.134841,1.634154 0.07833,0.03667 0.159302,0.07076 0.237638,0.107425 3.481749,1.618373 7.197492,2.807515 11.084253,3.5092 0.101669,0.01833 0.202662,0.03701 0.305998,0.05534 1.206696,0.208338 2.427167,0.373367 3.662199,0.485037 0.150002,0.01333 0.300814,0.02248 0.452484,0.03581 1.23003,0.101669 2.473784,0.166019 3.733815,0.166019 0.921689,0 1.666707,-0.745018 1.666707,-1.666707 0,-0.921689 -0.745018,-1.666708 -1.666707,-1.666708 -1.056693,0 -2.112525,-0.05188 -3.160884,-0.130211 C 44.9919,89.90464 44.813197,89.89232 44.633193,89.87565 43.5765,89.78231 42.523766,89.658274 41.482074,89.48827 l -0.139977,-0.02604 c -2.203387,-0.368343 -4.372814,-0.909529 -6.484533,-1.61788 -0.065,-0.02167 -0.130316,-0.04177 -0.195318,-0.06511 -1.048359,-0.356675 -2.087186,-0.749836 -3.105544,-1.18818 -0.0067,-0.0033 -0.01287,-0.0064 -0.01953,-0.0098 -0.963357,-0.41501 -1.90851,-0.875698 -2.841866,-1.36071 -0.12167,-0.06333 -0.244589,-0.123806 -0.364592,-0.188807 -0.851688,-0.455012 -1.684885,-0.948279 -2.506571,-1.461624 -0.243339,-0.153338 -0.485924,-0.305581 -0.72593,-0.46225 -0.756685,-0.495012 -1.503188,-1.011015 -2.229872,-1.556028 -0.075,-0.05667 -0.146357,-0.115863 -0.221359,-0.172531 l 0.159509,-0.09115 13.177404,-7.187675 c 2.266722,-1.236697 3.67522,-3.609828 3.67522,-6.191558 l 0,-6.002751 -0.384124,-0.46225 c -0.03667,-0.04167 -3.641677,-4.426436 -5.003377,-10.361581 l -0.14975,-0.660787 -0.569674,-0.367847 c -0.801686,-0.518346 -1.279329,-1.385997 -1.279328,-2.32102 l 0,-5.908348 c 0,-0.775019 0.327742,-1.496129 0.927756,-2.037809 l 0.550144,-0.494804 0,-9.284082 -0.01628,-0.218103 c -0.005,-0.04 -0.495872,-4.050646 2.32753,-7.269057 2.410059,-2.746734 6.540628,-4.140726 12.272435,-4.140726 5.710139,0 9.826411,1.384695 12.243136,4.111428 2.820069,3.185078 2.356908,7.268276 2.353574,7.30161 l -0.01302,9.502185 0.550144,0.494804 c 0.598348,0.540013 0.927757,1.262791 0.927757,2.037809 l 0,5.908348 c 0,1.188362 -0.809421,2.268675 -1.969449,2.627017 -0.878355,0.270007 -1.37196,1.205029 -1.100287,2.083384 0.270007,0.878355 1.200029,1.368627 2.083384,1.100287 2.583396,-0.796686 4.319767,-3.133956 4.319767,-5.810688 l 0,-5.908348 c 0,-1.445035 -0.529544,-2.846969 -1.477901,-3.948662 l 0,-7.776884 c 0.08667,-0.866687 0.393656,-5.745608 -3.138096,-9.772373 -3.071742,-3.506752 -8.043843,-5.283332 -14.779007,-5.283332 -6.735165,0 -11.707264,1.774991 -14.779006,5.280077 -3.531752,4.026765 -3.224767,8.909019 -3.138098,9.772373 l 0,7.780139 c -0.94669,1.101693 -1.477899,2.503627 -1.477899,3.948662 l 0,5.908348 c 0,1.835045 0.823091,3.545608 2.233126,4.700636 1.350033,5.288462 4.126429,9.291346 5.15312,10.648046 l 0,4.824336 c 0,1.360033 -0.741866,2.611704 -1.936895,3.265053 l -13.177403,7.187675 c -0.42001,0.228339 -0.836608,0.495951 -1.253285,0.794291 C 11.292897,71.369127 5.8334144,60.084112 5.8334144,47.54714 c 0,-23.435572 19.0654646,-42.5010364 42.5010366,-42.5010364 23.435571,0 42.501036,19.0654644 42.501036,42.5010364 0,0.921689 0.745018,1.666707 1.666707,1.666707 0.921689,0 1.666707,-0.745018 1.666707,-1.666707 0,-25.272283 -20.562168,-45.8344504 -45.83445,-45.8344504 z M 66.358978,60.047444 c -6.363488,0 -11.449497,4.939677 -12.11618,11.754843 -0.07,0.446678 -0.243989,2.033358 0.374359,4.515085 0.908356,3.661756 2.999838,6.982722 6.051579,9.61612 l 13.883802,11.878544 c 0.370009,0.316675 0.82265,0.475274 1.279328,0.475274 0.451678,0 0.907574,-0.157011 1.282583,-0.472019 L 91.001507,85.930237 c 3.046741,-2.625064 5.138302,-5.949442 6.048325,-9.612865 0.615015,-2.48506 0.444359,-4.071741 0.374357,-4.515085 -0.665016,-6.815166 -5.752692,-11.754843 -12.11618,-11.754843 -3.993431,0 -7.344503,2.414877 -9.472888,5.354949 -2.126718,-2.940072 -5.482712,-5.354949 -9.476143,-5.354949 z m 0,3.333415 c 3.648423,0 6.62597,3.019188 7.952669,6.009261 l 1.523474,3.434329 1.523476,-3.434329 c 1.326699,-2.991739 4.299323,-6.009261 7.949412,-6.009261 5.241794,0 8.395074,4.423754 8.825085,8.945531 0.0033,0.01166 0.187661,1.151877 -0.319018,3.186926 -0.741685,2.990073 -2.465452,5.720843 -4.983846,7.887562 L 75.835121,94.520941 62.843268,83.404133 c -2.523395,-2.175053 -4.247082,-4.903999 -4.9871,-7.894072 -0.503346,-2.021716 -0.32553,-3.160885 -0.32553,-3.160885 l 0.0293,-0.175785 c 0.406679,-4.370106 3.558916,-8.792532 8.799043,-8.792532 z"></path></svg>